# xmcd
#
# Track frame offsets:
#	150
#	29459
#	53386
#	86546
#	109187
#	136965
#	159080
#	187757
#	205678
#	230079
#	250605
#	270960
#
# Disc length: 4009 seconds
#
# Revision: 0
# Processed by: cddbd v1.4PL0 Copyright (c) Steve Scherf et al.
# Submitted via: dBpowerAMP V4.0
#
DISCID=890fa70c
DTITLE=other - PODIUM
DYEAR=1900
DGENRE=
TTITLE0=COLOURSOUND - fly with me
TTITLE1=DARRYL D8BONEAU AND WACKSIDE - sweet love
TTITLE2=THE ONES - superstar
TTITLE3=SYKE*N*SUGARSTAR - release your mind
TTITLE4=SPIRITUAL VIBE - amor y paz
TTITLE5=4 FUNK SOCIETY - king of the bitch
TTITLE6=MILO - jungle of mirror
TTITLE7=SAPIENS - blues
TTITLE8=DANIEM J CARTER feat DARRY D*BONEAU - chimbin
TTITLE9=ZU HOUSE ROCKCERS - a new disco
TTITLE10=THE RAMBAR - et timbal
TTITLE11=OSUNA - me vuelve loca
EXTD=PODIUM, Brodskiy Ilya
EXTT0=
EXTT1=
EXTT2=
EXTT3=
EXTT4=
EXTT5=
EXTT6=
EXTT7=
EXTT8=
EXTT9=
EXTT10=
EXTT11=
PLAYORDER=
